<svg width="62" height="48" viewBox="0 0 62 48" fill="none" xmlns="http://www.w3.org/2000/svg">
<path d="M55.9821 0H5.08929C2.27958 0 0 2.27958 0 5.08929V42.4107C0 45.2204 2.27958 47.5 5.08929 47.5H55.9821C58.7919 47.5 61.0714 45.2204 61.0714 42.4107V5.08929C61.0714 2.27958 58.7919 0 55.9821 0ZM55.9821 42.4107H5.08929V5.08929H55.9821V42.4107ZM22.0536 23.75C25.7963 23.75 28.8393 20.707 28.8393 16.9643C28.8393 13.2215 25.7963 10.1786 22.0536 10.1786C18.3108 10.1786 15.2679 13.2215 15.2679 16.9643C15.2679 20.707 18.3108 23.75 22.0536 23.75ZM12.5536 37.3214H31.5536C32.8683 37.3214 33.9286 36.4096 33.9286 35.2857V33.25C33.9286 29.8783 30.7372 27.1429 26.8036 27.1429C25.6585 27.1429 24.8209 27.9911 22.0536 27.9911C19.2015 27.9911 18.5123 27.1429 17.3036 27.1429C13.37 27.1429 10.1786 29.8783 10.1786 33.25V35.2857C10.1786 36.4096 11.2388 37.3214 12.5536 37.3214ZM38.1696 30.5357H50.0446C50.5112 30.5357 50.8929 30.154 50.8929 29.6875V27.9911C50.8929 27.5246 50.5112 27.1429 50.0446 27.1429H38.1696C37.7031 27.1429 37.3214 27.5246 37.3214 27.9911V29.6875C37.3214 30.154 37.7031 30.5357 38.1696 30.5357ZM38.1696 23.75H50.0446C50.5112 23.75 50.8929 23.3683 50.8929 22.9018V21.2054C50.8929 20.7388 50.5112 20.3571 50.0446 20.3571H38.1696C37.7031 20.3571 37.3214 20.7388 37.3214 21.2054V22.9018C37.3214 23.3683 37.7031 23.75 38.1696 23.75ZM38.1696 16.9643H50.0446C50.5112 16.9643 50.8929 16.5826 50.8929 16.1161V14.4196C50.8929 13.9531 50.5112 13.5714 50.0446 13.5714H38.1696C37.7031 13.5714 37.3214 13.9531 37.3214 14.4196V16.1161C37.3214 16.5826 37.7031 16.9643 38.1696 16.9643Z" fill="#FFE59D"/>
</svg>
