<svg width="53" height="53" viewBox="0 0 53 53" fill="none" xmlns="http://www.w3.org/2000/svg">
<path d="M50.5 26.75C50.5 13.64 39.86 3 26.75 3C13.64 3 3 13.64 3 26.75C3 39.86 13.64 50.5 26.75 50.5" stroke="#FFE59D" stroke-width="4.42092" stroke-linecap="round" stroke-linejoin="round"/>
<path d="M17.2491 5.375H19.6241C14.9928 19.245 14.9928 34.255 19.6241 48.125H17.2491" stroke="#FFE59D" stroke-width="4.42092" stroke-linecap="round" stroke-linejoin="round"/>
<path d="M33.875 5.375C36.1788 12.31 37.3425 19.53 37.3425 26.75" stroke="#FFE59D" stroke-width="4.42092" stroke-linecap="round" stroke-linejoin="round"/>
<path d="M5.375 36.25V33.875C12.31 36.1788 19.53 37.3425 26.75 37.3425" stroke="#FFE59D" stroke-width="4.42092" stroke-linecap="round" stroke-linejoin="round"/>
<path d="M48.125 19.6251C41.19 17.3214 33.97 16.1576 26.75 16.1576" stroke="#FFE59D" stroke-width="4.42092" stroke-linecap="round" stroke-linejoin="round"/>
<path d="M5.375 19.6251C9.15125 18.3664 12.9988 17.464 16.8938 16.8702" stroke="#FFE59D" stroke-width="4.42092" stroke-linecap="round" stroke-linejoin="round"/>
<path d="M41.475 49.075C45.6723 49.075 49.075 45.6723 49.075 41.475C49.075 37.2777 45.6723 33.875 41.475 33.875C37.2777 33.875 33.875 37.2777 33.875 41.475C33.875 45.6723 37.2777 49.075 41.475 49.075Z" stroke="#FFE59D" stroke-width="4.42092" stroke-linecap="round" stroke-linejoin="round"/>
<path d="M50.5 50.5L48.125 48.125" stroke="#FFE59D" stroke-width="4.42092" stroke-linecap="round" stroke-linejoin="round"/>
</svg>
